<?xml version="1.0" ?><svg viewBox="0 0 25 25" xmlns="http://www.w3.org/2000/svg"><defs><style>.cls-1{isolation:isolate;}.cls-2{fill:#b72134;}.cls-3{fill:#fff;}.cls-4{fill:#54cbf1;}.cls-5{fill:#349f8a;}.cls-6{fill:#7fa456;}.cls-7{fill:#3fc685;}.cls-8{fill:#d32071;}.cls-9{fill:#53299d;}.cls-10{fill:#e8b543;}.cls-11{fill:#c4c6ca;mix-blend-mode:multiply;}.cls-12{fill:none;}</style></defs><title/><g class="cls-1"><g data-name="Layer 2" id="Layer_2"><g data-name="Layer 1 copy" id="Layer_1_copy"><g id="Slack"><path class="cls-2" d="M19,6.44a2,2,0,0,0-1.59-.8H7.64a2,2,0,0,0-2,2v9.72a2,2,0,0,0,2,2h9.72a2,2,0,0,0,2-2V7.64A2,2,0,0,0,19,6.44Z"/><rect class="cls-3" height="7.7" transform="translate(-3.06 4.16) rotate(-16.84)" width="7.7" x="8.68" y="8.55"/><path class="cls-4" d="M15.09,7.6l-.59-2H7.64A2,2,0,0,0,6.55,6L7.73,9.83Z"/><path class="cls-5" d="M6.55,6a2,2,0,0,0-.92,1.68v2.83l2.09-.63Z"/><path class="cls-6" d="M19,6.44a2,2,0,0,0-1.59-.8H14.5l.59,2Z"/><path class="cls-7" d="M7.73,9.83l-2.09.63v6.9a2,2,0,0,0,.31,1.06l4-1.21Z"/><path class="cls-8" d="M10,17.2l.65,2.16h6.75A2,2,0,0,0,18.54,19l-1.21-4Z"/><path class="cls-2" d="M17.33,15l1.21,4a2,2,0,0,0,.83-1.61v-3Z"/><path class="cls-9" d="M5.95,18.42a2,2,0,0,0,1.69.94h3L10,17.2Z"/><path class="cls-10" d="M17.33,15l2-.62V7.64A2,2,0,0,0,19,6.44L15.09,7.6Z"/><path d="M11.72,14.77a2.07,2.07,0,0,1-.74-.43.49.49,0,0,1-.19-.37.39.39,0,0,1,.12-.28.39.39,0,0,1,.29-.12.37.37,0,0,1,.24.08A2.09,2.09,0,0,0,12,14a1.71,1.71,0,0,0,.63.1,1.25,1.25,0,0,0,.68-.17.5.5,0,0,0,.28-.43.56.56,0,0,0-.28-.49,2.41,2.41,0,0,0-.89-.27q-1.53-.22-1.53-1.43a1.29,1.29,0,0,1,.23-.77,1.46,1.46,0,0,1,.63-.5,2.23,2.23,0,0,1,.89-.17,2.54,2.54,0,0,1,.83.13,2,2,0,0,1,.65.35.47.47,0,0,1,.2.37.4.4,0,0,1-.12.28.38.38,0,0,1-.28.12.31.31,0,0,1-.19-.06,1.88,1.88,0,0,0-.51-.27,1.69,1.69,0,0,0-.58-.12,1.21,1.21,0,0,0-.68.16.52.52,0,0,0,0,.89,2.36,2.36,0,0,0,.78.25,4.08,4.08,0,0,1,1,.27,1.23,1.23,0,0,1,.54.45,1.38,1.38,0,0,1,.18.75,1.25,1.25,0,0,1-.25.77,1.6,1.6,0,0,1-.66.51,2.22,2.22,0,0,1-.89.18A2.92,2.92,0,0,1,11.72,14.77Z"/><path class="cls-11" d="M17.36,6.24a1.4,1.4,0,0,1,1.4,1.4v9.72a1.4,1.4,0,0,1-1.4,1.4H7.64a1.4,1.4,0,0,1-1.4-1.4V7.64a1.4,1.4,0,0,1,1.4-1.4h9.72m0-.6H7.64a2,2,0,0,0-2,2v9.72a2,2,0,0,0,2,2h9.72a2,2,0,0,0,2-2V7.64a2,2,0,0,0-2-2Z"/></g><rect class="cls-12" height="25" width="25"/></g></g></g></svg>